<svg xmlns="http://www.w3.org/2000/svg" viewBox="0 0 215.91 43.85" role="img" aria-label="KlarBill">
  <path fill="#0A0A0B" d="M0,.66h7.61v25.14s2.76-3.94,4.6-6.17L27.44.66h8.99l-15.69,19.89,17.33,22.65h-8.93l-13.19-17.4-8.34,10.04v7.35H0V.66Z"/>
  <path fill="#0A0A0B" d="M42.54,0h7.29v43.19h-7.29V0Z"/>
  <path fill="#0A0A0B" d="M56.06,26.98c0-9.39,6.1-16.94,15.03-16.94,4.4,0,8.27,1.77,10.83,4.79v-4.14h7.29v32.49h-7.29v-4.07c-2.56,3.02-6.43,4.73-10.83,4.73-8.93,0-15.03-7.55-15.03-16.87ZM81.92,26.98c0-5.71-3.81-9.91-8.99-9.91-5.51,0-9.45,4.2-9.45,9.91s3.94,9.85,9.45,9.85c5.12,0,8.99-4.07,8.99-9.85Z"/>
  <path fill="#0A0A0B" d="M96.56,10.7h7.29v6.43c1.25-3.28,4.79-7.09,11.75-7.09v7.94c-7.15,0-11.75,3.41-11.75,11.95v13.26h-7.29V10.7Z"/>
  <path fill="#9e005d" d="M121.64.66h19.82c7.02,0,12.74,3.28,12.74,10.77,0,3.35-2.1,6.43-4.46,7.61,4.86,1.05,8.47,5.38,8.47,10.9,0,8.73-6.63,13.26-16.15,13.26h-20.42V.66ZM141.07,16.74c3.28,0,5.19-1.77,5.19-4.66s-1.84-4.86-5.51-4.86h-11.49v9.52h11.82ZM141.53,36.63c5.32,0,8.73-2.17,8.73-6.56s-3.15-6.83-8.01-6.83h-13v13.39h12.28Z"/>
  <path fill="#9e005d" d="M164.9,14.94h7.29v28.26h-7.29V14.94Z"/>
  <path fill="#9e005d" d="M164.9,0h7.29v10.04h-7.29V0Z"/>
  <path fill="#9e005d" d="M179.54,0h7.29v43.19h-7.29V0Z"/>
  <path fill="#9e005d" d="M194.17,0h7.29v43.19h-7.29V0Z"/>
  <path fill="#9e005d" d="M208.62,36.3h7.29v6.89h-7.29v-6.89Z"/>
</svg>
