<?xml version="1.0" encoding="UTF-8"?>
<svg id="Layer_2" data-name="Layer 2" xmlns="http://www.w3.org/2000/svg" viewBox="0 0 180.52 44.96">
  <defs>
    <style>
      .cls-1 {
        fill: #9e005d;
      }
    </style>
  </defs>
  <g id="Layer_1-2" data-name="Layer 1">
    <g>
      <path d="M0,1.12h4.99v29.08l15.62-17.85h6.3l-12.73,14.18,14.9,17.79h-6.17l-11.82-14.31-6.1,6.89v7.42H0V1.12Z"/>
      <path d="M33.87,1.12h4.99v43.19h-4.99V1.12Z"/>
      <path d="M45.95,28.36c0-9.39,6.24-16.67,15.1-16.67,5.12,0,9.65,2.1,12.01,6.24v-5.58h4.99v31.97h-4.99v-5.58c-2.36,4.2-6.89,6.24-12.01,6.24-8.86,0-15.1-7.35-15.1-16.61ZM73.06,28.36c0-6.7-4.79-11.82-10.9-11.82s-11.09,4.99-11.09,11.82,4.73,11.75,11.09,11.75,10.9-5.05,10.9-11.75Z"/>
      <path d="M86.45,12.34h4.99v6.76c1.84-4.2,5.97-7.42,12.34-7.42v5.45c-7.48,0-12.34,4.2-12.34,12.01v15.16h-4.99V12.34Z"/>
      <path class="cls-1" d="M114.35,38.73v5.58h-4.79V1.12h4.99v16.8c2.36-4.13,6.96-6.24,12.01-6.24,8.86,0,15.1,7.29,15.1,16.67s-6.24,16.61-15.1,16.61c-5.19,0-9.85-2.03-12.21-6.24ZM136.54,28.36c0-6.83-4.73-11.82-11.09-11.82s-10.9,5.12-10.9,11.82,4.79,11.75,10.9,11.75,11.09-4.99,11.09-11.75Z"/>
      <path class="cls-1" d="M147.96,3.35c0-1.84,1.44-3.35,3.28-3.35s3.35,1.51,3.35,3.35-1.51,3.28-3.35,3.28-3.28-1.44-3.28-3.28ZM148.75,12.34h4.99v31.97h-4.99V12.34Z"/>
      <path class="cls-1" d="M162.14,1.12h4.99v43.19h-4.99V1.12Z"/>
      <path class="cls-1" d="M175.53,1.12h4.99v43.19h-4.99V1.12Z"/>
    </g>
  </g>
</svg>